<svg width="1920" height="1080" viewBox="0 0 1920 1080" xmlns="http://www.w3.org/2000/svg"><path d="M 0,1080 C 0,1080 0,180 0,180 C 119.65128205128207,157.87692307692308 239.30256410256413,135.75384615384615 372,124 C 504.69743589743587,112.24615384615386 650.4410256410256,110.86153846153849 734,117 C 817.5589743589744,123.13846153846151 838.9333333333334,136.79999999999998 905,143 C 971.0666666666666,149.20000000000002 1081.825641025641,147.93846153846152 1264,151 C 1446.174358974359,154.06153846153848 1699.7641025641026,161.44615384615383 1821,167 C 1942.2358974358974,172.55384615384617 1931.1179487179488,176.27692307692308 1920,180 C 1920,180 1920,1080 1920,1080 Z" fill="#191d2b" opacity="0.09999999999999999"/><path d="M 0,1080 C 0,1080 0,360 0,360 C 9.120512820512822,387.61538461538464 18.241025641025644,415.2307692307692 43,395 C 67.75897435897436,374.7692307692308 108.15641025641025,306.6923076923077 316,293 C 523.8435897435897,279.3076923076923 899.1333333333334,320 1171,334 C 1442.8666666666666,348 1611.3102564102564,335.3076923076923 1562,324 C 1512.6897435897436,312.6923076923077 1245.6256410256412,302.7692307692308 1269,309 C 1292.3743589743588,315.2307692307692 1606.1871794871795,337.61538461538464 1920,360 C 1920,360 1920,1080 1920,1080 Z" fill="#191d2b" opacity="0.19999999999999998"/><path d="M 0,1080 C 0,1080 0,540 0,540 C 54.21025641025639,552.3692307692307 108.42051282051278,564.7384615384615 308,559 C 507.5794871794872,553.2615384615385 852.5282051282052,529.4153846153847 875,524 C 897.4717948717948,518.5846153846153 597.4666666666666,531.5999999999999 623,523 C 648.5333333333334,514.4000000000001 999.6051282051283,484.1846153846154 1282,497 C 1564.3948717948717,509.8153846153846 1778.1128205128205,565.6615384615385 1873,580 C 1967.8871794871795,594.3384615384615 1943.9435897435897,567.1692307692308 1920,540 C 1920,540 1920,1080 1920,1080 Z" fill="#191d2b" opacity="0.3"/><path d="M 0,1080 C 0,1080 0,720 0,720 C -6.005128205128202,728.251282051282 -12.010256410256403,736.5025641025641 112,752 C 236.0102564102564,767.4974358974359 490.03589743589737,790.2410256410257 611,784 C 731.9641025641026,777.7589743589743 719.8666666666667,742.5333333333333 856,719 C 992.1333333333333,695.4666666666667 1276.4974358974357,683.625641025641 1498,699 C 1719.5025641025643,714.374358974359 1878.14358974359,756.9641025641025 1938,765 C 1997.85641025641,773.0358974358975 1958.928205128205,746.5179487179487 1920,720 C 1920,720 1920,1080 1920,1080 Z" fill="#191d2b" opacity="0.39999999999999997"/><path d="M 0,1080 C 0,1080 0,900 0,900 C -83.92820512820512,916.1666666666667 -167.85641025641024,932.3333333333334 -12,913 C 143.85641025641024,893.6666666666666 539.4974358974358,838.8333333333333 763,844 C 986.5025641025642,849.1666666666667 1037.8666666666668,914.3333333333333 1090,933 C 1142.1333333333332,951.6666666666667 1195.0358974358974,923.8333333333334 1314,926 C 1432.9641025641026,928.1666666666666 1617.9897435897435,960.3333333333333 1730,961 C 1842.0102564102565,961.6666666666667 1881.0051282051281,930.8333333333334 1920,900 C 1920,900 1920,1080 1920,1080 Z" fill="#191d2b" opacity="0.49999999999999994"/></svg>